<?xml version="1.0" standalone="no"?>
<!DOCTYPE svg PUBLIC "-//W3C//DTD SVG 20010904//EN"
 "http://www.w3.org/TR/2001/REC-SVG-20010904/DTD/svg10.dtd">
<svg version="1.0" xmlns="http://www.w3.org/2000/svg"
 width="300.000000pt" height="300.000000pt" viewBox="0 0 300.000000 300.000000"
 preserveAspectRatio="xMidYMid meet">

<g transform="translate(0.000000,300.000000) scale(0.100000,-0.100000)"
fill="#FA2889" stroke="none">
<path d="M1095 2741 c-11 -5 -27 -17 -36 -27 -16 -18 -119 -235 -119 -250 0
-4 -16 -40 -35 -80 -19 -40 -35 -77 -35 -83 0 -6 -20 -52 -44 -103 -24 -51
-55 -120 -69 -153 -48 -115 -95 -220 -121 -274 -14 -30 -26 -58 -26 -63 0 -4
-20 -50 -45 -102 -25 -53 -45 -98 -45 -102 0 -3 -16 -40 -35 -81 -19 -41 -35
-77 -35 -79 0 -6 -32 -78 -71 -158 -16 -33 -29 -63 -29 -67 0 -4 -13 -36 -29
-71 -39 -85 -65 -146 -81 -188 -7 -19 -17 -39 -22 -44 -16 -19 -8 -75 15 -99
20 -22 169 -117 183 -117 3 0 18 -8 32 -19 15 -10 47 -29 72 -43 81 -45 124
-70 215 -123 263 -154 250 -149 364 -135 53 6 132 18 176 25 44 8 107 17 140
20 73 7 163 19 315 40 123 17 208 28 335 44 44 5 87 12 95 15 9 4 56 11 105
17 50 5 124 14 165 19 41 4 114 13 163 19 123 14 152 26 167 70 10 33 8 43
-23 116 -19 44 -44 98 -55 120 -24 47 -174 357 -225 465 -58 124 -149 313
-251 523 -53 109 -96 200 -96 204 0 3 -43 93 -96 200 -85 170 -101 197 -135
219 -21 13 -41 24 -45 24 -3 0 -63 28 -132 61 -180 88 -311 149 -317 149 -3 0
-60 27 -126 60 -125 62 -131 64 -164 51z m237 -608 c94 -191 173 -363 175
-382 4 -28 -8 -67 -56 -179 -34 -78 -61 -144 -61 -146 0 -3 -16 -39 -35 -80
-19 -42 -35 -79 -35 -82 0 -3 -9 -24 -19 -48 -11 -23 -29 -67 -41 -97 -40
-102 -83 -186 -102 -198 -10 -6 -69 -16 -131 -22 -158 -15 -243 -25 -392 -44
-186 -25 -209 -25 -213 1 -2 12 9 47 23 79 15 31 42 92 60 134 18 42 56 128
85 191 28 63 60 138 71 165 11 28 32 75 46 105 14 30 38 84 54 120 15 36 51
119 79 185 29 66 65 149 80 185 15 36 38 88 52 115 14 28 29 61 33 75 7 24 85
203 107 248 29 56 42 36 220 -325z m66 311 c137 -65 315 -154 327 -164 15 -12
1 -62 -50 -175 -12 -27 -26 -61 -30 -75 -17 -54 -66 -140 -80 -140 -10 0 -64
98 -155 284 -77 156 -140 289 -140 296 0 19 59 7 128 -26z m529 -464 c19 -41
46 -100 60 -130 39 -85 104 -220 186 -390 41 -85 109 -227 150 -315 41 -88
100 -209 131 -270 31 -60 56 -118 56 -128 0 -23 -35 -15 -120 31 -346 184
-363 193 -388 216 -13 11 -72 121 -132 243 -109 222 -127 246 -150 204 -20
-39 -9 -81 66 -235 42 -86 74 -165 72 -177 -4 -30 -56 -46 -166 -54 -159 -11
-212 -33 -212 -87 0 -26 32 -31 118 -18 77 12 201 27 298 37 41 4 59 0 95 -20
129 -71 192 -105 274 -147 118 -62 168 -90 179 -101 19 -18 -62 -35 -339 -69
-38 -5 -106 -14 -150 -19 -44 -6 -109 -15 -145 -20 -36 -5 -105 -15 -155 -21
-130 -16 -228 -30 -325 -46 -159 -26 -178 -18 -141 61 12 25 21 49 21 54 0 9
64 161 104 246 13 28 30 68 37 90 6 22 20 55 31 73 10 18 18 37 18 42 0 5 16
43 35 84 19 42 35 79 35 84 0 4 11 28 24 54 13 26 36 80 51 120 15 40 32 77
36 82 5 6 9 16 9 22 0 7 16 47 35 88 19 42 35 78 35 81 0 5 62 154 95 230 7
17 23 55 36 85 12 30 33 70 47 88 31 42 42 34 89 -68z m-807 -1190 c0 -11 -13
-48 -29 -82 -16 -35 -42 -92 -57 -128 -16 -36 -35 -73 -43 -82 -26 -33 -15
-38 -323 144 -64 38 -121 75 -128 83 -19 23 25 38 135 46 177 13 306 27 312
33 4 3 35 6 70 6 56 0 63 -2 63 -20z"/>
</g>
</svg>
